<svg version="1.1" xmlns="http://www.w3.org/2000/svg" xmlns:xlink="http://www.w3.org/1999/xlink" width="212" height="116"><defs/><g><text fill="#eeeeee" stroke="none" font-family="Arial" font-size="24px" font-style="normal" font-weight="normal" text-decoration="none" x="0" y="0">UNREGISTERED</text><text fill="#eeeeee" stroke="none" font-family="Arial" font-size="24px" font-style="normal" font-weight="normal" text-decoration="none" x="0" y="30">UNREGISTERED</text><text fill="#eeeeee" stroke="none" font-family="Arial" font-size="24px" font-style="normal" font-weight="normal" text-decoration="none" x="0" y="60">UNREGISTERED</text><text fill="#eeeeee" stroke="none" font-family="Arial" font-size="24px" font-style="normal" font-weight="normal" text-decoration="none" x="0" y="90">UNREGISTERED</text><text fill="#eeeeee" stroke="none" font-family="Arial" font-size="24px" font-style="normal" font-weight="normal" text-decoration="none" x="200" y="0">UNREGISTERED</text><text fill="#eeeeee" stroke="none" font-family="Arial" font-size="24px" font-style="normal" font-weight="normal" text-decoration="none" x="200" y="30">UNREGISTERED</text><text fill="#eeeeee" stroke="none" font-family="Arial" font-size="24px" font-style="normal" font-weight="normal" text-decoration="none" x="200" y="60">UNREGISTERED</text><text fill="#eeeeee" stroke="none" font-family="Arial" font-size="24px" font-style="normal" font-weight="normal" text-decoration="none" x="200" y="90">UNREGISTERED</text><g transform="translate(-230,-262) scale(1,1)"><rect fill="#C0C0C0" stroke="none" x="247" y="279" width="192" height="96" opacity="0.2"/></g><g transform="translate(-230,-262) scale(1,1)"><rect fill="#ffffff" stroke="none" x="240" y="272" width="192" height="96"/></g><g transform="translate(-230,-262) scale(1,1)"><path fill="none" stroke="#000000" d="M 240 272 L 432 272 L 432 368 L 240 368 L 240 272 Z Z" stroke-miterlimit="10"/></g><g transform="translate(-230,-262) scale(1,1)"><path fill="none" stroke="#000000" d="M 240 297 L 432 297" stroke-miterlimit="10"/></g><g transform="translate(-230,-262) scale(1,1)"><path fill="none" stroke="#000000" d="M 240 335 L 432 335" stroke-miterlimit="10"/></g><g transform="translate(-230,-262) scale(1,1)"><g><path fill="none" stroke="none"/><text fill="#000000" stroke="none" font-family="Arial" font-size="13px" font-style="normal" font-weight="bold" text-decoration="none" x="314.319580078125" y="291.5">Genero</text></g></g><g transform="translate(-230,-262) scale(1,1)"><g><path fill="none" stroke="none"/><text fill="#000000" stroke="none" font-family="Arial" font-size="13px" font-style="normal" font-weight="normal" text-decoration="none" x="245" y="314.5">-id: Long</text></g></g><g transform="translate(-230,-262) scale(1,1)"><g><path fill="none" stroke="none"/><text fill="#000000" stroke="none" font-family="Arial" font-size="13px" font-style="normal" font-weight="normal" text-decoration="none" x="245" y="329.5">-nome: String</text></g></g></g></svg>